<svg xmlns="http://www.w3.org/2000/svg" viewBox="0 0 64 64">
  <defs>
    <linearGradient id="bg" x1="0%" y1="0%" x2="100%" y2="100%">
      <stop offset="0%" stop-color="#0b1f3a"/>
      <stop offset="100%" stop-color="#1e3f7a"/>
    </linearGradient>
    <linearGradient id="wing" x1="0%" y1="0%" x2="100%" y2="100%">
      <stop offset="0%" stop-color="#ffffff"/>
      <stop offset="100%" stop-color="#c7deff"/>
    </linearGradient>
    <filter id="shadow" x="-20%" y="-20%" width="140%" height="140%">
      <feDropShadow dx="0" dy="1" stdDeviation="1.5" flood-color="rgba(0,0,0,0.4)"/>
    </filter>
  </defs>

  <rect width="64" height="64" rx="13" fill="url(#bg)"/>

  <rect x="3.5" y="3.5" width="57" height="57" rx="10.5" fill="none"
        stroke="rgba(255,255,255,0.12)" stroke-width="1"/>

  <g transform="translate(32,33) rotate(-40) translate(-20,-12)" filter="url(#shadow)">
    <path d="M34 4 C36 4 38 6 38 8 L38 20 L52 26 L52 30 L38 27 L38 36 L43 39 L43 43 L34 40 L25 43 L25 39 L30 36 L30 27 L16 30 L16 26 L30 20 L30 8 C30 6 32 4 34 4 Z"
          fill="url(#wing)"/>
  </g>
</svg>
